<?xml version="1.0" encoding="utf-8"?>
<!-- Generator: Adobe Illustrator 23.0.1, SVG Export Plug-In . SVG Version: 6.00 Build 0)  -->
<svg version="1.1" id="Layer_1" xmlns="http://www.w3.org/2000/svg" xmlns:xlink="http://www.w3.org/1999/xlink" x="0px" y="0px"
	 viewBox="0 0 500 500" style="enable-background:new 0 0 500 500;" xml:space="preserve">
<style type="text/css">
	.st0{opacity:0.43;}
	.st1{fill:#2B7F99;}
	.st2{fill:#878787;}
	.st3{fill:#1A1A1A;}
	.st4{fill:#575756;}
	.st5{fill:#3C3C3B;}
	.st6{fill:#FFEF00;}
	.st7{font-family:'MajorMonoDisplay-Regular';}
	.st8{font-size:64.7782px;}
	.st9{font-size:52.7543px;}
</style>
<g>
	<rect x="0" width="500" height="500"/>
</g>
<g class="st0">
	<path class="st1" d="M493.4,502.8c-4-12.4-9.3-24.4-15.9-35.7c-6.6-11.3-14.4-21.8-23.2-31.4c-17.7-19.3-39.4-34.8-63-46.7
		c-23.6-11.9-49.1-20.3-75.1-25.7c-26.1-5.4-52.8-7.8-79.5-7.6c-26.7,0.3-53.4,3.2-79.4,9.1c-26,5.9-51.4,14.7-74.7,27.2
		c-11.6,6.3-22.8,13.5-32.9,21.8c-10.2,8.3-19.4,17.7-27.1,28.2c-3.8,5.2-7.3,10.7-10.3,16.5c-3,5.7-5.5,11.7-7.6,17.8
		c-4.1,12.3-6.1,25.2-6,38.2l-5.9-5.9l524-0.4l-3.3,3.3L513,275l-0.2-118.2l0-7.4l0-3.7l0-0.9l0-0.2c0,0.1,0.1,0.5,0.3,0.7
		c0.3,0.3,0,0,0,0l-0.1-0.2l-1.1-1.4c-3-3.8-6.3-7.5-9.6-11c-6.7-7.1-13.9-13.7-21.6-19.8c-15.3-12.2-32.2-22.3-49.9-30.9
		c-17.7-8.5-36.1-15.5-54.9-21.1c-18.8-5.6-38.1-9.9-57.5-13.1c-38.8-6.3-78.4-8.2-117.7-6c-39.3,2.3-78.4,8.6-116.1,20
		c-18.8,5.7-37.3,12.8-55,21.4c-17.7,8.7-34.6,19-50,31.2c15.3-12.4,32.2-22.8,49.9-31.6C47,74.2,65.5,67,84.3,61.1
		c37.7-11.7,76.9-18.3,116.3-20.8c39.4-2.5,79.1-0.8,118.1,5.2c19.5,3.1,38.9,7.2,57.9,12.8c19,5.5,37.6,12.4,55.5,20.9
		c17.9,8.5,35,18.7,50.7,31c7.8,6.1,15.2,12.8,22.1,20c3.4,3.6,6.7,7.3,9.9,11.2l1.2,1.5l0.1,0.2c0.1,0.2,0-0.1,0.2,0.4
		c0.2,0.3,0.3,0.8,0.3,1.1l0,0.2l0,0.9l0,3.7l0.1,7.4l1.1,118.2l2,236.5l0,3.3l-3.3,0l-524,5.6l-5.9,0.1l0-5.9
		c-0.1-14.2,2-28.5,6.5-42c2.2-6.8,5-13.3,8.3-19.7c3.3-6.3,7.1-12.3,11.2-18.1c8.3-11.5,18.3-21.6,29.1-30.5
		c10.8-8.9,22.6-16.6,34.8-23.3c24.5-13.3,50.9-22.6,77.8-28.8c27-6.2,54.5-9.4,82.1-9.8c27.6-0.4,55.3,2,82.4,7.5
		c27.1,5.5,53.8,14,78.8,26.5c24.9,12.4,48.2,28.8,67.4,49.5c9.6,10.3,18.1,21.7,25.3,33.8c7.2,12.2,13,25.1,17.4,38.6L493.4,502.8z
		"/>
</g>
<g>
	<path class="st2" d="M88.6,27.2c-4.3-1.3-16.7-2.6-22.3,0c-13.7,6.3-9.9,16.2-7.8,21.4c2.9,6.8,0,12.4-11.4,14.2
		c-35.6,6-20.3,56.6,15.5,50.7c23-3.7,13.1-27.3,21.1-33.1C111.2,61.1,104.6,32.3,88.6,27.2z"/>
	<circle class="st3" cx="85.9" cy="57.8" r="8.5"/>
	<circle class="st3" cx="48.8" cy="81" r="7.8"/>
	<circle class="st3" cx="90.5" cy="38.2" r="4"/>
	<circle class="st4" cx="66.7" cy="86.2" r="5.7"/>
	<circle class="st4" cx="54.6" cy="98.3" r="4"/>
	<circle class="st4" cx="76" cy="38.2" r="7.5"/>
</g>
<g>
	<path class="st2" d="M441.3,330.6c-35.9-5.3-19.8,26-30.5,53.7c-5.3,14.1-36.3-13.9-53.3,0c-37,30.1,21.2,91.4,43.9,92.2
		C451.7,478.4,517.5,342,441.3,330.6z"/>
	<ellipse class="st3" cx="450.6" cy="398.9" rx="13.1" ry="14.3"/>
	<ellipse class="st5" cx="435.3" cy="371.7" rx="12" ry="13.1"/>
	<ellipse class="st3" cx="456.6" cy="363.9" rx="6.2" ry="6.8"/>
	<ellipse class="st4" cx="371.3" cy="414.7" rx="8.9" ry="9.7"/>
	<ellipse class="st4" cx="435.3" cy="343" rx="6.2" ry="6.8"/>
	<ellipse class="st4" cx="413.2" cy="441.2" rx="11.6" ry="12.6"/>
	<ellipse class="st5" cx="394.5" cy="415.7" rx="8.9" ry="9.7"/>
	<ellipse class="st5" cx="385.6" cy="441.2" rx="8.9" ry="9.7"/>
</g>
<text transform="matrix(1 0 0 1 57.8374 225.9307)"><tspan x="0" y="0" class="st6 st7 st8">Asteroid</tspan><tspan x="-3.4" y="63.3" class="st6 st7 st9">of the Day</tspan></text>
</svg>
