<?xml version="1.0" encoding="utf-8"?>
<!-- Generator: Adobe Illustrator 21.1.0, SVG Export Plug-In . SVG Version: 6.00 Build 0)  -->
<svg version="1.1" id="Layer_1" xmlns="http://www.w3.org/2000/svg" xmlns:xlink="http://www.w3.org/1999/xlink" x="0px" y="0px"
	 viewBox="0 0 113.4 114.6" style="enable-background:new 0 0 113.4 114.6;" xml:space="preserve">
<style type="text/css">
	.st0{fill:#FFEF00;}
	.st1{fill:none;stroke:#FFEF00;stroke-width:10.027;stroke-miterlimit:10;}
</style>
<g>
	<path class="st0" d="M45.7,38.8c8,0,15.6,3.1,21.3,8.8c11.7,11.7,11.7,30.8,0,42.5c-5.7,5.7-13.2,8.8-21.3,8.8
		c-8,0-15.6-3.1-21.3-8.8c-11.7-11.7-11.7-30.8,0-42.5C30.1,41.9,37.6,38.8,45.7,38.8 M45.7,28.7c-10.3,0-20.5,3.9-28.4,11.7
		c-15.7,15.7-15.7,41.1,0,56.7C25.1,105,35.4,109,45.7,109S66.2,105,74,97.2c15.7-15.7,15.7-41.1,0-56.7
		C66.2,32.6,55.9,28.7,45.7,28.7L45.7,28.7z"/>
</g>
<g>
	<g>
		<line class="st1" x1="74" y1="40.5" x2="91.3" y2="23.2"/>
		<g>
			<polygon class="st0" points="99.8,38.8 108.6,5.9 75.7,14.7 			"/>
		</g>
	</g>
</g>
<image style="overflow:visible;" width="2173" height="1500" xlink:href="../../../../Downloads/all_symbols.jpg"  transform="matrix(0.24 0 0 0.24 191 -43.39)">
</image>
</svg>
