<?xml version="1.0" encoding="utf-8"?>
<!-- Generator: Adobe Illustrator 21.1.0, SVG Export Plug-In . SVG Version: 6.00 Build 0)  -->
<svg version="1.1" id="Layer_1" xmlns="http://www.w3.org/2000/svg" xmlns:xlink="http://www.w3.org/1999/xlink" x="0px" y="0px"
	 viewBox="0 0 113.4 113.4" style="enable-background:new 0 0 113.4 113.4;" xml:space="preserve">
<style type="text/css">
	.st0{fill:#2B799F;}
	.st1{display:none;}
	.st2{display:inline;fill:none;stroke:#2B799F;stroke-width:5;stroke-linecap:round;stroke-miterlimit:10;}
	.st3{fill:none;stroke:#2B799F;stroke-width:6.1698;stroke-linecap:round;stroke-miterlimit:10;}
	.st4{fill:none;stroke:#2B799F;stroke-width:6.1698;stroke-linecap:round;stroke-miterlimit:10;stroke-dasharray:12.515,12.515;}
	.st5{fill:none;stroke:#2B799F;stroke-width:6.1698;stroke-linecap:round;stroke-miterlimit:10;stroke-dasharray:7.8615,7.8615;}
	.st6{fill:none;stroke:#2B799F;stroke-width:5.3999;stroke-linecap:round;stroke-miterlimit:10;}
</style>
<g>
	<path class="st0" d="M34.7,52.8l0,7h0c0.8,0,1.7,0.1,2.5,0.2c9.3,1.4,15.7,10.1,14.4,19.4C50.4,87.7,43.1,94,34.8,94
		c-0.8,0-1.7-0.1-2.5-0.2c-9.3-1.4-15.7-10.1-14.4-19.4c1.2-8.3,8.5-14.5,16.8-14.5L34.7,52.8 M34.7,52.8c-11.7,0-22,8.6-23.8,20.5
		c-2,13.1,7.1,25.4,20.2,27.4c1.2,0.2,2.4,0.3,3.6,0.3c11.7,0,22-8.6,23.8-20.5c2-13.1-7.1-25.4-20.2-27.4
		C37.1,52.9,35.9,52.8,34.7,52.8L34.7,52.8z"/>
</g>
<g class="st1">
	<path class="st2" d="M51,100.1c-3.9,3.7-9.2,5.9-15,5.9c-12.2,0-22-9.8-22-22c0-6.1,2.5-11.6,6.4-15.6"/>
</g>
<g>
	<g>
		<line class="st3" x1="67.3" y1="60.4" x2="73.3" y2="56"/>
		<line class="st4" x1="83.3" y1="48.6" x2="98.4" y2="37.4"/>
		<line class="st3" x1="103.4" y1="33.7" x2="109.4" y2="29.3"/>
	</g>
</g>
<g>
	<g>
		<path class="st0" d="M31.6,89.2c7.1,0,7.2-11.1,0-11.1C24.4,78.1,24.4,89.2,31.6,89.2L31.6,89.2z"/>
	</g>
</g>
<g>
	<g>
		<path class="st0" d="M29,75.1c4.8,0,4.8-7.4,0-7.4C24.3,67.7,24.3,75.1,29,75.1L29,75.1z"/>
	</g>
</g>
<g>
	<g>
		<line class="st3" x1="78.9" y1="36.1" x2="84.9" y2="31.7"/>
		<line class="st5" x1="91.2" y1="27.1" x2="100.7" y2="20"/>
		<line class="st3" x1="103.8" y1="17.7" x2="109.8" y2="13.3"/>
	</g>
</g>
<g>
	<g>
		<path class="st0" d="M40.3,71.3c2.4,0,2.4-3.7,0-3.7C37.9,67.6,37.9,71.3,40.3,71.3L40.3,71.3z"/>
	</g>
</g>
<path class="st6" d="M94.7,58.7L66.8,80.4c-2.5,16.5-17.9,27.9-34.4,25.4S4.5,88,7,71.5s17.9-27.9,34.4-25.4L88.8,12"/>
<g>
	<g>
		<path class="st0" d="M48.8,83.2c7.1,0,7.2-11.1,0-11.1C41.7,72.1,41.7,83.2,48.8,83.2L48.8,83.2z"/>
	</g>
</g>
</svg>
