<?xml version="1.0" encoding="utf-8"?>
<!-- Generator: Adobe Illustrator 23.0.1, SVG Export Plug-In . SVG Version: 6.00 Build 0)  -->
<svg version="1.1" id="Layer_1" xmlns="http://www.w3.org/2000/svg" xmlns:xlink="http://www.w3.org/1999/xlink" x="0px" y="0px"
	 viewBox="0 0 225.9 225.9" style="enable-background:new 0 0 225.9 225.9;" xml:space="preserve">
<style type="text/css">
	.st0{fill:none;stroke:#2D809A;stroke-width:14;stroke-miterlimit:10;}
	.st1{fill:#2D809A;}
	.st2{fill:#2D809A;stroke:#2D809A;stroke-width:10;stroke-miterlimit:10;}
	.st3{fill:#2D809A;stroke:#2D809A;stroke-width:7;stroke-miterlimit:10;}
</style>
<path class="st0" d="M52.1,88.5"/>
<g>
	<path class="st1" d="M52.1,88.5c0.1,1.1,0.3,2.1,0.3,3.2c0,1.1-0.1,2.2-0.2,3.3c-0.3,2.2-1,4.4-2,6.5c-1.1,2.1-2.4,4-4,5.8
		c-1.7,1.7-3.6,3.2-5.8,4.4c-4.4,2.3-9.6,3.6-14.8,2.8c-0.6-0.1-1.3-0.3-1.9-0.5c-0.6-0.2-1.2-0.4-1.8-0.7c-1.2-0.4-2.4-1-3.6-1.6
		c-2.3-1.2-4.4-2.8-6.2-4.6c-1.8-1.9-3.4-3.9-4.6-6.2c-1.2-2.3-2.1-4.8-2.6-7.3c-0.5-2.6-0.6-5.1-0.4-7.7c0.3-2.6,0.9-5.1,1.9-7.5
		c1-2.4,2.4-4.6,4-6.6c1.7-2,3.6-3.7,5.7-5.2c2.2-1.4,4.5-2.5,7-3.3c2.5-0.7,5.1-1.1,7.7-1.1L26.8,64l21.4-27l14-17.7l-5.2,21.9
		L49.6,72l-8.3-4.8l40.5-38.5L107.9,4L89.6,34.9l-8.1,13.7l-4.1,6.9c-0.6,1.2-1.2,2.4-2,3.5c-0.8,1.1-1.7,2.2-2.5,3.2
		c-3.4,4.3-6.7,8.7-10.2,13C59.2,79.7,55.7,84.1,52.1,88.5z M52.1,88.5c1.9-4.9,3.9-9.9,6-14.8c2-5,4.3-10,6.4-15
		c0.6-1.3,1.1-2.5,1.7-3.8c0.6-1.2,1.4-2.4,2.2-3.6l4.2-7.2L81,29.8l7.7,6.2L48.2,74.5L36,86.1l3.9-16.4l7.3-30.8l8.8,4.3l-21.4,27
		L33.2,72l-2.5,0.1c-1.6,0-3.2,0.2-4.8,0.7c-1.5,0.5-3,1.2-4.3,2.1c-1.3,0.9-2.5,2-3.6,3.2c-1,1.3-1.8,2.7-2.5,4.1
		c-0.6,1.5-1,3.1-1.2,4.7c-0.1,1.6-0.1,3.2,0.2,4.8c0.3,1.6,0.9,3.1,1.6,4.5c0.8,1.4,1.7,2.7,2.9,3.9c1.2,1.1,2.5,2.1,3.9,2.9
		c0.7,0.3,1.4,0.7,2.2,0.9c0.8,0.3,1.6,0.3,2.3,0.5c1.6,0.3,3.1,0.8,4.8,0.9c1.7,0.1,3.4-0.1,5.1-0.5c1.7-0.4,3.4-1.1,5-2
		c1.6-0.9,3.1-2.1,4.4-3.5c1.3-1.4,2.4-3.1,3.3-4.9c0.4-0.9,0.9-1.9,1.1-2.9C51.7,90.6,51.8,89.5,52.1,88.5z"/>
</g>
<circle class="st2" cx="36.2" cy="98.3" r="5.5"/>
<circle class="st3" cx="26.4" cy="80.7" r="2.8"/>
</svg>
