<?xml version="1.0" encoding="utf-8"?>
<!-- Generator: Adobe Illustrator 21.1.0, SVG Export Plug-In . SVG Version: 6.00 Build 0)  -->
<svg version="1.1" id="Layer_1" xmlns="http://www.w3.org/2000/svg" xmlns:xlink="http://www.w3.org/1999/xlink" x="0px" y="0px"
	 viewBox="0 0 113.4 113.4" style="enable-background:new 0 0 113.4 113.4;" xml:space="preserve">
<style type="text/css">
	.st0{fill:#2B799F;}
</style>
<g>
	<g>
		<path class="st0" d="M57,9c0.6,0,3.6,2.2,6.3,12.7C65.7,31.1,67,43.6,67,57s-1.3,25.9-3.7,35.3C60.6,102.8,57.6,105,57,105
			s-3.6-2.2-6.3-12.7C48.3,82.9,47,70.4,47,57s1.3-25.9,3.7-35.3C53.4,11.2,56.4,9,57,9 M57,6c-7.2,0-13,22.8-13,51s5.8,51,13,51
			s13-22.8,13-51S64.2,6,57,6L57,6z"/>
	</g>
	<g>
		<path class="st0" d="M57,47c13.4,0,25.9,1.3,35.3,3.7c10.5,2.7,12.7,5.6,12.7,6.3s-2.2,3.6-12.7,6.3C82.9,65.7,70.4,67,57,67
			s-25.9-1.3-35.3-3.7C11.2,60.6,9,57.6,9,57s2.2-3.6,12.7-6.3C31.1,48.3,43.6,47,57,47 M57,44C28.8,44,6,49.8,6,57s22.8,13,51,13
			s51-5.8,51-13S85.2,44,57,44L57,44z"/>
	</g>
	<g>
		<path class="st0" d="M89.7,19.8v3c0.7,0,1.1,0.1,1.3,0.3c0.5,0.5,1,4.1-4.5,13.4c-5,8.3-12.9,18.1-22.3,27.6
			C46.4,81.7,30.4,91.2,24.3,91.2c-0.7,0-1.1-0.1-1.3-0.3c-0.5-0.5-1-4.1,4.5-13.4c5-8.3,12.9-18.1,22.3-27.6
			c17.6-17.6,33.6-27.2,39.7-27.2V19.8 M89.7,19.8c-8,0-25,11.2-41.9,28C27.9,67.7,15.9,88,20.9,93.1c0.8,0.8,1.9,1.2,3.4,1.2
			c8,0,25-11.2,41.9-28C86.1,46.3,98.1,26,93.1,20.9C92.3,20.2,91.1,19.8,89.7,19.8L89.7,19.8z"/>
	</g>
	<g>
		<path class="st0" d="M24.3,19.8v3c6.1,0,22.1,9.5,39.7,27.2c9.5,9.5,17.4,19.3,22.3,27.6c5.5,9.3,5,13,4.5,13.4
			c-0.1,0.1-0.5,0.3-1.3,0.3c-6.1,0-22.1-9.5-39.7-27.2c-9.5-9.5-17.4-19.3-22.3-27.6c-5.5-9.3-5-13-4.5-13.4
			c0.1-0.1,0.5-0.3,1.3-0.3L24.3,19.8 M24.3,19.8c-1.5,0-2.6,0.4-3.4,1.2c-5.1,5.1,7,25.3,26.9,45.3c16.8,16.8,33.9,28,41.9,28
			c1.5,0,2.6-0.4,3.4-1.2c5.1-5.1-7-25.3-26.9-45.3C49.4,31,32.3,19.8,24.3,19.8L24.3,19.8z"/>
	</g>
</g>
<g>
	<circle class="st0" cx="57" cy="57" r="3"/>
</g>
</svg>
