<?xml version="1.0" encoding="utf-8"?>
<!-- Generator: Adobe Illustrator 21.1.0, SVG Export Plug-In . SVG Version: 6.00 Build 0)  -->
<svg version="1.1" id="Layer_1" xmlns="http://www.w3.org/2000/svg" xmlns:xlink="http://www.w3.org/1999/xlink" x="0px" y="0px"
	 viewBox="0 0 113.4 148.4" style="enable-background:new 0 0 113.4 148.4;" xml:space="preserve">
<style type="text/css">
	.st0{fill:#FFEF00;}
	.st1{fill:none;stroke:#FFEF00;stroke-width:10.0271;stroke-miterlimit:10;}
</style>
<g>
	<path class="st0" d="M57.9,27.4C74.5,27.4,88,40.9,88,57.5S74.5,87.6,57.9,87.6S27.9,74.1,27.9,57.5S41.4,27.4,57.9,27.4
		 M57.9,17.4c-22.2,0-40.1,18-40.1,40.1s18,40.1,40.1,40.1S98,79.7,98,57.5S80.1,17.4,57.9,17.4L57.9,17.4z"/>
</g>
<g>
	<line class="st1" x1="57.9" y1="97.6" x2="57.9" y2="146.5"/>
</g>
<line class="st1" x1="20.4" y1="125.2" x2="94.4" y2="125.2"/>
<g>
	<path class="st1" d="M33.9,31.8c0,0-18.8-16.3,0-23.8"/>
	<path class="st1" d="M82,31.8c0,0,18.8-16.3,0-23.8"/>
</g>
</svg>
