<?xml version="1.0" encoding="utf-8"?>
<!-- Generator: Adobe Illustrator 23.0.1, SVG Export Plug-In . SVG Version: 6.00 Build 0)  -->
<svg version="1.1" id="Layer_1" xmlns="http://www.w3.org/2000/svg" xmlns:xlink="http://www.w3.org/1999/xlink" x="0px" y="0px"
	 viewBox="0 0 70 70" style="enable-background:new 0 0 70 70;" xml:space="preserve">
<style type="text/css">
	.st0{fill:#878787;}
	.st1{fill:#1A1A1A;}
	.st2{fill:#575756;}
</style>
<path class="st0" d="M53.9,30.3c10.4-5.5,9.3-22.4-1.9-26c-3-0.9-11.6-1.8-15.5,0c-9.5,4.4-6.4,15.5-4.9,19.1c2,4.7,5,8.9,1.1,12.3
	c-3.3,2.8-11.2-1.5-18,4.1C3.2,49.2,8.8,63.6,34,64.4C56.6,65.1,50.7,48,50.7,40.5C50.8,37.2,50.9,31.9,53.9,30.3z"/>
<circle class="st1" cx="45.5" cy="26.5" r="5.9"/>
<circle class="st1" cx="46" cy="11.7" r="5.4"/>
<circle class="st1" cx="53.3" cy="19.2" r="2.8"/>
<circle class="st2" cx="22.2" cy="43" r="4"/>
<circle class="st2" cx="16.1" cy="49.2" r="2.8"/>
<circle class="st2" cx="24.2" cy="54.1" r="5.2"/>
</svg>
