<?xml version="1.0" encoding="utf-8"?>
<!-- Generator: Adobe Illustrator 21.1.0, SVG Export Plug-In . SVG Version: 6.00 Build 0)  -->
<svg version="1.1" id="Layer_1" xmlns="http://www.w3.org/2000/svg" xmlns:xlink="http://www.w3.org/1999/xlink" x="0px" y="0px"
	 viewBox="0 0 113.4 113.4" style="enable-background:new 0 0 113.4 113.4;" xml:space="preserve">
<style type="text/css">
	.st0{fill:#FFEF00;}
</style>
<g>
	<path class="st0" d="M57,17c22.1,0,40,17.9,40,40S79.1,97,57,97S17,79.1,17,57S34.9,17,57,17 M57,9C30.5,9,9,30.5,9,57
		s21.5,48,48,48s48-21.5,48-48S83.5,9,57,9L57,9z"/>
</g>
<g>
	<path class="st0" d="M57,50c-3.9,0-7,3.1-7,7s3.1,7,7,7s7-3.1,7-7S60.9,50,57,50L57,50z"/>
</g>
</svg>
