<?xml version="1.0" encoding="utf-8"?>
<!-- Generator: Adobe Illustrator 23.0.1, SVG Export Plug-In . SVG Version: 6.00 Build 0)  -->
<svg version="1.1" id="Layer_1" xmlns="http://www.w3.org/2000/svg" xmlns:xlink="http://www.w3.org/1999/xlink" x="0px" y="0px"
	 viewBox="0 0 27.4 61.7" style="enable-background:new 0 0 27.4 61.7;" xml:space="preserve">
<style type="text/css">
	.st0{fill:url(#SVGID_1_);}
	.st1{fill:url(#SVGID_2_);}
	.st2{fill:url(#SVGID_3_);}
	.st3{fill:url(#SVGID_4_);}
	.st4{fill:url(#SVGID_5_);}
	.st5{fill:url(#SVGID_6_);}
	.st6{fill:url(#SVGID_7_);}
	.st7{fill:url(#SVGID_8_);}
	.st8{display:none;fill:none;stroke:#000000;stroke-width:0.25;stroke-miterlimit:10;}
	.st9{fill:none;stroke:#000000;stroke-width:0.25;stroke-miterlimit:10;}
	.st10{fill:url(#SVGID_9_);}
	.st11{clip-path:url(#SVGID_11_);}
	.st12{fill:none;stroke:#29235C;stroke-miterlimit:10;}
</style>
<linearGradient id="SVGID_1_" gradientUnits="userSpaceOnUse" x1="9.1344" y1="51.2733" x2="17.832" y2="56.2949">
	<stop  offset="0" style="stop-color:#706F6F"/>
	<stop  offset="0.5175" style="stop-color:#B2B2B2"/>
	<stop  offset="0.8434" style="stop-color:#969696"/>
	<stop  offset="1" style="stop-color:#878787"/>
</linearGradient>
<polygon class="st0" points="8.3,52.7 9.1,55.6 13.7,58.2 18.3,55.4 19.1,52.7 13.7,55.4 "/>
<linearGradient id="SVGID_2_" gradientUnits="userSpaceOnUse" x1="0.7069" y1="28.4847" x2="26.7465" y2="28.4847">
	<stop  offset="0" style="stop-color:#0088C2"/>
	<stop  offset="0.1953" style="stop-color:#009ED6"/>
	<stop  offset="0.3893" style="stop-color:#00B2E8"/>
	<stop  offset="0.5009" style="stop-color:#00BAEE"/>
	<stop  offset="0.5762" style="stop-color:#00B4E9"/>
	<stop  offset="0.6871" style="stop-color:#00A5D9"/>
	<stop  offset="0.8202" style="stop-color:#008EC0"/>
	<stop  offset="0.9692" style="stop-color:#00709D"/>
	<stop  offset="1" style="stop-color:#006994"/>
</linearGradient>
<path class="st1" d="M26.7,20.2c0,6.2-5.1,25.2-6.5,30.5c-0.2,0.9-0.8,1.6-1.6,2.1l-3.2,1.8c-1.1,0.6-2.3,0.6-3.4,0l-3.2-1.8
	c-0.8-0.5-1.4-1.2-1.6-2.1c-1.4-5.3-6.5-24.3-6.5-30.5C0.7,8.8,7.2,4.2,12.5,2.1c0.8-0.3,1.7-0.3,2.5,0C19.9,4,26.7,8.8,26.7,20.2z"
	/>
<linearGradient id="SVGID_3_" gradientUnits="userSpaceOnUse" x1="21.6895" y1="46.9832" x2="26.4347" y2="46.9832">
	<stop  offset="0" style="stop-color:#190F35"/>
	<stop  offset="0.1631" style="stop-color:#1B1139"/>
	<stop  offset="0.4273" style="stop-color:#1F1643"/>
	<stop  offset="0.7575" style="stop-color:#241E51"/>
	<stop  offset="1" style="stop-color:#29235C"/>
</linearGradient>
<path class="st2" d="M23.3,38.9c0,0,7.4,1.3-0.7,16.1c0.8-8,0.8-9.4-0.9-9.5c-0.1,0-0.1,0-0.1-0.1L23.3,38.9z"/>
<linearGradient id="SVGID_4_" gradientUnits="userSpaceOnUse" x1="10.7134" y1="49.5015" x2="16.7768" y2="49.5015">
	<stop  offset="1.891121e-02" style="stop-color:#29235C"/>
	<stop  offset="0.1282" style="stop-color:#29245F"/>
	<stop  offset="0.2459" style="stop-color:#2A2666"/>
	<stop  offset="0.3671" style="stop-color:#2B2A73"/>
	<stop  offset="0.4727" style="stop-color:#2D2E83"/>
	<stop  offset="0.6283" style="stop-color:#272569"/>
	<stop  offset="0.8028" style="stop-color:#211A4D"/>
	<stop  offset="0.9318" style="stop-color:#1B133C"/>
	<stop  offset="1" style="stop-color:#190F35"/>
</linearGradient>
<path class="st3" d="M13.7,59.9c0,0-6.8-20.8,0-20.8C20.6,39.2,13.7,59.9,13.7,59.9z"/>
<linearGradient id="SVGID_5_" gradientUnits="userSpaceOnUse" x1="8.3196" y1="48.7877" x2="8.3196" y2="48.7877">
	<stop  offset="0" style="stop-color:#29235C"/>
	<stop  offset="1" style="stop-color:#190F35"/>
</linearGradient>
<path class="st4" d="M8.3,48.8"/>
<g>
	<linearGradient id="SVGID_6_" gradientUnits="userSpaceOnUse" x1="19.1416" y1="45.9243" x2="20.172" y2="46.5192">
		<stop  offset="0" style="stop-color:#29235C"/>
		<stop  offset="0" style="stop-color:#575756"/>
		<stop  offset="3.944218e-03" style="stop-color:#575656"/>
		<stop  offset="0.1201" style="stop-color:#454544"/>
		<stop  offset="0.2634" style="stop-color:#383837"/>
		<stop  offset="0.4635" style="stop-color:#2C2C2B"/>
		<stop  offset="1" style="stop-color:#282727"/>
	</linearGradient>
	<circle class="st5" cx="19.7" cy="46.2" r="0.6"/>
	<linearGradient id="SVGID_7_" gradientUnits="userSpaceOnUse" x1="18.6186" y1="47.9903" x2="19.649" y2="48.5852">
		<stop  offset="0" style="stop-color:#29235C"/>
		<stop  offset="0" style="stop-color:#575756"/>
		<stop  offset="3.944218e-03" style="stop-color:#575656"/>
		<stop  offset="0.1201" style="stop-color:#454544"/>
		<stop  offset="0.2634" style="stop-color:#383837"/>
		<stop  offset="0.4635" style="stop-color:#2C2C2B"/>
		<stop  offset="1" style="stop-color:#282727"/>
	</linearGradient>
	<circle class="st6" cx="19.1" cy="48.3" r="0.6"/>
	<linearGradient id="SVGID_8_" gradientUnits="userSpaceOnUse" x1="18.0955" y1="50.0563" x2="19.126" y2="50.6512">
		<stop  offset="0" style="stop-color:#29235C"/>
		<stop  offset="0" style="stop-color:#575756"/>
		<stop  offset="3.944218e-03" style="stop-color:#575656"/>
		<stop  offset="0.1201" style="stop-color:#454544"/>
		<stop  offset="0.2634" style="stop-color:#383837"/>
		<stop  offset="0.4635" style="stop-color:#2C2C2B"/>
		<stop  offset="1" style="stop-color:#282727"/>
	</linearGradient>
	<circle class="st7" cx="18.6" cy="50.4" r="0.6"/>
</g>
<line class="st8" x1="23.9" y1="65.2" x2="-37.3" y2="32.3"/>
<line class="st8" x1="-1" y1="67.7" x2="60.1" y2="34.8"/>
<path class="st9" d="M-33.8,30"/>
<path class="st9" d="M27.4,62.9"/>
<line class="st8" x1="-17.1" y1="66.8" x2="44" y2="33.9"/>
<line class="st8" x1="38.5" y1="63.8" x2="-22.6" y2="30.9"/>
<linearGradient id="SVGID_9_" gradientUnits="userSpaceOnUse" x1="1.0051" y1="46.963" x2="5.7503" y2="46.963">
	<stop  offset="0" style="stop-color:#2D2E83"/>
	<stop  offset="6.127620e-02" style="stop-color:#2C2C7D"/>
	<stop  offset="0.3917" style="stop-color:#25225F"/>
	<stop  offset="0.6695" style="stop-color:#1F1849"/>
	<stop  offset="0.8805" style="stop-color:#1B123B"/>
	<stop  offset="1" style="stop-color:#190F35"/>
</linearGradient>
<path class="st10" d="M4.1,38.9c0,0-7.4,1.3,0.7,16.1C4,47,4,45.7,5.7,45.5c0.1,0,0.1,0,0.1-0.1L4.1,38.9z"/>
<g>
	<g>
		<defs>
			<circle id="SVGID_10_" cx="13.7" cy="17.4" r="5.4"/>
		</defs>
		<clipPath id="SVGID_11_">
			<use xlink:href="#SVGID_10_"  style="overflow:visible;"/>
		</clipPath>
		<g class="st11">
			<g>
				<defs>
					<rect id="SVGID_12_" x="3.3" y="7" width="20.8" height="20.8"/>
				</defs>
				<clipPath id="SVGID_13_">
					<use xlink:href="#SVGID_12_"  style="overflow:visible;"/>
				</clipPath>
				<g style="clip-path:url(#SVGID_13_);">
					
						<image style="overflow:visible;" width="44" height="44" xlink:href="EF63AD387512DFA8.jpg"  transform="matrix(0.48 0 0 0.48 3.1643 6.8686)">
					</image>
				</g>
			</g>
		</g>
	</g>
	<circle class="st12" cx="13.7" cy="17.4" r="5.4"/>
</g>
</svg>
